<?xml version="1.0" encoding="UTF-8"?>
<svg id="a" data-name="Layer 1" xmlns="http://www.w3.org/2000/svg" viewBox="0 0 359 422.13">
  <path d="M300,173.12c0,31.66-13.15,66.79-39.07,104.42-20.02,29.07-43.57,54.1-63.95,74.74-8.55,8.65-19.9,13.41-31.98,13.41s-23.43-4.76-31.98-13.41c-20.38-20.64-43.93-45.67-63.95-74.74-25.93-37.63-39.07-72.76-39.07-104.42,0-74.43,60.56-135,135-135s135,60.57,135,135Z" style="fill: #fff;"/>
  <path d="M165,422.13c-41.93,0-81.58-6.62-111.64-18.65C18.95,389.71,0,369.7,0,347.12c0-12.38,5.8-30.53,33.43-46.72,7.15-4.19,16.34-1.79,20.53,5.36,4.19,7.15,1.79,16.34-5.36,20.52-11.82,6.93-18.6,14.52-18.6,20.84,0,8.93,13.54,20.11,34.5,28.5,26.6,10.64,62.29,16.5,100.5,16.5s73.89-5.86,100.5-16.5c20.96-8.39,34.5-19.57,34.5-28.5,0-6.31-6.78-13.91-18.59-20.84-7.14-4.19-9.54-13.38-5.36-20.53,4.19-7.14,13.38-9.54,20.53-5.35,27.62,16.19,33.42,34.34,33.42,46.71,0,22.57-18.95,42.59-53.36,56.35-30.06,12.03-69.71,18.65-111.64,18.65h0Zm0,0h0Z" style="fill: #0a9396;"/>
  <path d="M164.98,241.26c-10.71,0-21.08-3.79-29.19-10.68-19.28-16.38-39.21-33.31-39.21-58.46s18.32-44,41.71-44c11.36,0,20.16,4.41,26.71,10.43,6.55-6.01,15.35-10.43,26.71-10.43,23.39,0,41.71,19.32,41.71,44s-19.92,42.03-39.19,58.42c-8.11,6.9-18.48,10.71-29.21,10.72h-.05Zm-26.69-83.13c-7.69,0-11.71,7.04-11.71,14,0,9.65,8.83,18.78,28.63,35.59,5.58,4.74,14,4.73,19.58-.02,20.19-17.17,28.63-25.91,28.63-35.57,0-6.95-4.02-14-11.71-14-8.19,0-11.96,11.25-12.27,12.23-1.72,6.6-7.61,11.21-14.44,11.21s-12.72-4.61-14.44-11.21c-.31-.97-4.08-12.23-12.27-12.23h0Zm12.29,12.29h0Zm0,0h0Z" style="fill: #0a9396;"/>
  <path d="M165,365.69c-12.08,0-23.43-4.77-31.98-13.41-20.39-20.64-43.93-45.67-63.96-74.74-25.92-37.63-39.07-72.76-39.07-104.41,0-74.44,60.56-135,135-135s135,60.56,135,135c0,31.66-13.15,66.79-39.07,104.41-20.03,29.07-43.57,54.1-63.96,74.74-8.54,8.65-19.9,13.41-31.98,13.41h0Zm0-297.57c-57.9,0-105,47.1-105,105,0,62.52,68.56,131.94,94.37,158.08,2.86,2.89,6.64,4.49,10.63,4.49s7.77-1.6,10.63-4.49c25.81-26.14,94.37-95.56,94.37-158.08,0-57.9-47.1-105-105-105h0Zm0,0h0Z" style="fill: #0a9396;"/>
  <g>
    <circle cx="283" cy="76" r="50.55" style="fill: #d8fbfd;"/>
    <path d="M283,0c-41.91,0-76,34.09-76,76s34.09,76,76,76,76-34.09,76-76S324.91,0,283,0Zm0,126.55c-27.87,0-50.55-22.68-50.55-50.55s22.68-50.55,50.55-50.55,50.55,22.68,50.55,50.55-22.68,50.55-50.55,50.55Z" style="fill: #0a9396;"/>
  </g>
  <path d="M317.09,56.88c0,2.17-.64,4.37-1.98,6.28l-26.76,38.29c-1.8,2.58-4.63,4.26-7.76,4.63-.44,.04-.85,.07-1.26,.07-2.72,0-5.33-1-7.35-2.82l-19.42-17.44c-4.51-4.05-4.89-11.01-.84-15.53,1.96-2.19,4.66-3.48,7.6-3.63,2.93-.16,5.75,.83,7.93,2.79l10.18,9.14,19.65-28.11c1.68-2.4,4.2-4.01,7.09-4.53,2.89-.51,5.81,.14,8.22,1.82,3.06,2.14,4.7,5.57,4.7,9.04Z" style="fill: #0a9396;"/>
</svg>